<svg xmlns="http://www.w3.org/2000/svg" viewBox="0 0 300 300"><defs><style>.cls-1{isolation:isolate;}.cls-2,.cls-3{fill:none;stroke-linecap:round;stroke-linejoin:round;}.cls-2{stroke:#231f20;stroke-width:5px;}.cls-3{stroke:#15bef0;stroke-width:6px;stroke-dasharray:2 10;mix-blend-mode:multiply;}</style></defs><title>CustomerService</title><g class="cls-1"><g id="Layer_1" data-name="Layer 1"><path class="cls-2" d="M119.8,126.36c0,19.88,6.87,86.88,8,98.71a3.41,3.41,0,0,0,2.13,2.6c2.84,1.18,8.76,2.84,18,2.84h1.66a51.45,51.45,0,0,0,18-2.84,3.41,3.41,0,0,0,2.13-2.6c1.18-11.6,8-83.33,8-103.21"/><ellipse class="cls-2" cx="148.92" cy="119.49" rx="30.77" ry="6.63"/><line class="cls-3" x1="232.45" y1="213.4" x2="166.19" y2="213.4"/><line class="cls-3" x1="129.16" y1="149.75" x2="62.9" y2="149.75"/><path class="cls-2" d="M179.66,77.76c-4.85-3.23-16.77-5.46-30.92-5.46-18.39,0-33.14,3.84-33.14,8.69s15,8.69,33.14,8.69c11.72,0,22-1.41,27.89-4,2.63-1,3-.81,3-.81l8.89-.4a2.08,2.08,0,0,0,2-2.22V81a2.2,2.2,0,0,0-2-2.22l-8.89-1"/><path class="cls-2" d="M118,93c0,4.45,13.74,8.08,30.92,8.08,10.1,0,19.2-1.21,24.85-3.23,2.83-1,4.85-6.57,5.46-9.39l.61-3.64"/></g></g></svg>