<?xml version="1.0" encoding="utf-8"?>
<!-- Generator: Adobe Illustrator 21.1.0, SVG Export Plug-In . SVG Version: 6.00 Build 0)  -->
<svg version="1.1" id="Layer_1" xmlns="http://www.w3.org/2000/svg" xmlns:xlink="http://www.w3.org/1999/xlink" x="0px" y="0px"
	 viewBox="0 0 300 300" style="enable-background:new 0 0 300 300;" xml:space="preserve">
<style type="text/css">
	.st0{fill:none;stroke:#231F20;stroke-width:5;stroke-linecap:round;stroke-linejoin:round;stroke-miterlimit:10;}
	.st1{fill:none;stroke:#15BEF0;stroke-width:4;stroke-linecap:round;stroke-linejoin:round;stroke-miterlimit:10;}
	.st2{fill:#FFFFFF;stroke:#231F20;stroke-width:5;stroke-linecap:round;stroke-linejoin:round;stroke-miterlimit:10;}
	.st3{fill:#15BEF0;}
	
		.st4{fill:none;stroke:#15BEF0;stroke-width:6;stroke-linecap:round;stroke-linejoin:round;stroke-miterlimit:10;stroke-dasharray:2,10;}
	.st5{fill:#15BEF0;stroke:#15BEF0;stroke-width:4;stroke-linecap:round;stroke-linejoin:round;stroke-miterlimit:10;}
</style>
<circle class="st3" cx="170.6" cy="173.3" r="12.9"/>
<path class="st0" d="M187.3,155.4c0.9,14,4.3,47.3,5,55c0.1,0.8,0.5,1.5,1.4,1.8c1.8,0.7,5.4,1.9,11.3,1.9h1c5.8,0,9.5-1.2,11.3-1.9
	c0.7-0.3,1.2-1,1.4-1.8c0.8-7.9,3.4-41.7,5-55"/>
<ellipse class="st0" cx="205.5" cy="153.5" rx="19" ry="4.7"/>
<path class="st0" d="M223.6,156.4c0,0,6.7-1.9,6.7-2.1v-1.5c0-0.3-8.8-1.8-8.8-1.8"/>
<g>
	<path class="st0" d="M189.8,148.8c0.6-8.2,1-15.2,1-19.4"/>
	<path class="st0" d="M151.9,209.9c0.2,0.9,0.7,1.7,1.7,2c2.2,0.9,6.8,2.2,14,2.2h1.3c7.4,0,12-1.5,14-2.2c0.9-0.4,1.5-1.1,1.7-2
		c0.4-4.3,1.9-19.2,3.3-35.3"/>
	<path class="st0" d="M154,123.4c4-0.6,8.9-1,14.3-1c13.2,0,24,2.3,24,5.2c0,2.9-10.7,5.2-24,5.2c-5.4,0-10.3-0.4-14.3-1"/>
</g>
<path class="st0" d="M107.5,87.3c2.8,0.1,5.6,0.2,8.1,0.3l13.8,0.1c8-0.1,12.2-0.4,12.2-0.4v6.2l10.9,24.5c1,1.9,1.5,4.2,1.5,6.3
	v82.9c0,4.4-11.1,9-30.2,9s-30.2-4.6-30.2-9v-82.9c0-2.3,0.6-4.4,1.5-6.3l11.7-24.5l0.3-26c0-1.5,1.3-2.6,2.8-2.5l30.2,3.5
	c0.8,0.1,1.4,0.8,1.4,1.5v7l11.6-0.3c3.7,0,7,2.3,8.3,5.9l11,31.2c0.2,0.7,0.1,1.4-0.4,1.9l-0.3,0.3c-0.3,0.3-0.8,0.5-1.2,0.5h-1.8
	c-0.7,0-1.4-0.5-1.7-1.2l-11.1-30.7c-0.3-0.9-1.2-1.6-2.2-1.6l-7.8-0.2c-2.2-0.1-4.1,1.8-4.1,4l0,0"/>
<path class="st0" d="M98.7,122.2c0,0,8.3,1.4,21.5,1.6"/>
<path class="st0" d="M107.5,74.4c2.8,0.1,5.6,0.2,8.1,0.3l13.4,0.3c0,0,7.9,0,12-0.3"/>
<circle class="st0" cx="169.7" cy="170.5" r="10.2"/>
<path class="st0" d="M107.5,157.7h35.3c0,0,0.4-13.7-17.7-13.7S107.5,157.7,107.5,157.7z"/>
<line class="st0" x1="107.5" y1="166.8" x2="142.3" y2="166.8"/>
<path class="st0" d="M107.5,175.9h35.3v2.6c0,1-0.8,1.8-1.8,1.8h-31.7c-1,0-1.8-0.8-1.8-1.8V175.9z"/>
<polyline class="st0" points="210.6,174.6 210.6,182.6 210.6,190.7 "/>
<polyline class="st0" points="198.7,174.6 198.7,182.6 198.7,190.7 "/>
<line class="st0" x1="209.3" y1="182.6" x2="198.7" y2="182.6"/>
</svg>
